<svg width="626" height="663" viewBox="0 0 626 663" fill="none" xmlns="http://www.w3.org/2000/svg">
<path d="M153.998 385.134C155.32 389.872 155.981 394.39 155.981 398.687C155.981 413.012 149.976 424.637 137.965 433.562C125.955 442.377 110.087 446.785 90.3635 446.785C79.1243 445.903 68.7114 442.322 59.125 436.041C47.5552 427.116 39.4563 416.924 34.8284 405.464C29.8699 395.767 27.3906 384.473 27.3906 371.581C30.5861 348.111 39.3461 329.103 53.6707 314.558C68.1054 299.903 85.2397 288.664 105.074 280.84C125.018 273.017 151.408 265.249 184.244 257.535C217.081 249.822 236.97 244.974 243.912 242.99C225.62 231.09 211.571 215.223 201.764 195.389C191.958 175.445 187.054 154.509 187.054 132.581C187.054 112.196 190.69 93.9601 197.963 77.8726C212.287 45.9178 233.94 23.3291 262.919 10.1064C280.439 3.38493 298.014 0.0241699 315.645 0.0241699C339.996 0.0241699 363.026 6.08455 384.733 18.2053C397.405 26.2491 408.313 36.0008 417.459 47.4604C426.605 58.9201 433.602 71.5918 438.45 85.4756C443.298 99.2492 445.722 113.629 445.722 128.615C445.722 137.209 445.282 143.765 444.4 148.283C438.34 187.29 421.205 217.041 392.997 237.536C392.997 241.172 395.697 242.99 401.096 242.99C414.098 241.889 421.316 241.007 422.748 240.346C498.448 227.123 550.787 198.199 579.767 153.572C570.291 188.282 565.553 216.71 565.553 238.858C565.553 256.489 568.032 273.403 572.99 289.6C577.949 305.798 586.544 327.285 598.775 354.061C567.591 319.792 535.967 298.14 503.902 289.104C477.567 279.518 447.32 274.725 413.162 274.725C407.211 274.725 393.438 275.221 371.841 276.212C370.519 276.212 367.929 276.102 364.073 275.882C360.216 275.661 357.186 275.551 354.982 275.551C344.073 275.551 338.619 278.251 338.619 283.65C339.06 296.873 339.5 308.938 339.941 319.847C340.492 330.646 340.878 339.351 341.098 345.962C341.319 352.463 341.429 360.342 341.429 369.597C341.429 380.396 341.208 388.991 340.768 395.382C340.768 400.781 345.506 403.48 354.982 403.48C362.805 401.828 372.722 397.09 384.733 389.266V470.42C380.105 465.572 373.714 460.999 365.56 456.702C357.516 452.294 350.795 450.09 345.396 450.09C340.878 450.09 338.619 452.349 338.619 456.867C339.611 473.175 340.106 486.067 340.106 495.543C340.106 501.053 339.996 509.096 339.776 519.675C339.556 530.253 339.445 537.966 339.445 542.814V557.029C342.971 556.257 347.875 554.825 354.156 552.731C360.436 550.638 365.45 547.828 369.196 544.302C358.508 576.036 340.217 614.602 314.322 660C296.582 631.131 279.227 593.005 262.258 545.624C263.691 546.946 266.06 548.324 269.365 549.756C272.671 551.078 276.362 552.346 280.439 553.558C284.626 554.66 288.703 555.816 292.67 557.029C293.111 549.426 293.331 536.148 293.331 517.195C293.331 505.625 293.221 494.717 293.001 484.469C292.891 474.222 292.78 466.839 292.67 462.321C292.67 456.922 290.907 453.341 287.381 451.578C283.965 450.586 281.211 450.09 279.117 450.09C273.718 450.09 266.886 452.845 258.622 458.354C250.468 463.754 245.564 466.894 243.912 467.776V438.686V386.456C247.989 390.313 252.672 394.004 257.961 397.53C263.25 401.056 266.721 402.819 268.374 402.819C270.247 402.819 273.112 403.15 276.968 403.811C280.825 404.472 283.58 404.803 285.232 404.803C290.852 404.803 294.213 401.387 295.315 394.555C295.315 388.385 295.205 379.68 294.984 368.44C294.764 357.201 294.654 348.772 294.654 343.152C294.654 331.472 294.874 322.437 295.315 316.046C295.535 314.172 295.921 310.757 296.472 305.798C297.133 300.729 297.463 296.487 297.463 293.071C297.463 284.917 294.984 280.84 290.026 280.84C268.649 281.061 248.374 281.997 229.201 283.65C210.139 285.303 191.682 288.058 173.832 291.914C155.981 295.771 138.185 301.501 120.445 309.104C102.705 316.707 86.1213 326.238 70.6948 337.698C57.5824 347.615 51.0261 360.727 51.0261 377.035C51.0261 392.572 56.7008 405.684 68.0503 416.373C76.5348 424.416 87.3333 428.934 100.446 429.926C111.354 429.926 120.831 426.73 128.875 420.339C137.028 413.838 141.105 404.362 141.105 391.911C137.469 381.994 128.654 377.035 114.66 377.035C104.853 377.035 97.4156 380.176 92.3469 386.456C106.782 388.109 113.999 393.784 113.999 403.48C113.999 406.676 113.118 410.037 111.354 413.563C108.93 417.199 103.476 419.017 94.9915 419.017C82.4299 417.254 76.1492 409.1 76.1492 394.555C76.1492 389.707 77.8571 384.859 81.2729 380.01C84.799 375.052 88.2699 371.36 91.6858 368.936C98.8481 365.3 107.663 363.482 118.131 363.482C138.075 363.482 150.031 370.699 153.998 385.134ZM315.645 216.545C331.291 216.545 345.781 212.689 359.114 204.975C372.447 197.262 382.97 186.849 390.683 173.737C398.507 160.514 402.418 146.135 402.418 130.598C402.418 115.061 398.507 100.737 390.683 87.6243C382.97 74.4016 372.447 63.9337 359.114 56.2205C345.781 48.5072 331.291 44.6506 315.645 44.6506C300.218 44.6506 285.894 48.5072 272.671 56.2205C259.448 63.9337 248.98 74.4016 241.267 87.6243C233.554 100.737 229.697 115.061 229.697 130.598C229.697 146.135 233.554 160.514 241.267 173.737C248.98 186.849 259.448 197.262 272.671 204.975C285.894 212.689 300.218 216.545 315.645 216.545Z" fill="white"/>
<path d="M171.646 318.387H166.641V316.067C170.091 316.067 172.061 314.171 172.549 310.379H175.308V343.338H180.312V347H166.641V343.338H171.646V318.387ZM204.849 324.368C204.149 317.483 201.65 314.041 197.354 314.041C192.227 314.041 189.663 316.686 189.663 321.976C189.663 327.265 192.227 329.91 197.354 329.91C201.634 329.91 204.132 328.063 204.849 324.368ZM197.354 310.379C204.922 310.379 208.706 316.482 208.706 328.689C208.706 340.896 204.515 347 196.133 347C189.378 347 186.001 344.135 186.001 338.406H189.663C189.663 341.694 191.82 343.338 196.133 343.338C201.471 343.338 204.409 339.383 204.946 331.473C203.107 332.872 200.576 333.572 197.354 333.572C189.785 333.572 186.001 329.707 186.001 321.976C186.001 314.244 189.785 310.379 197.354 310.379ZM236.147 334.793C236.147 342.931 232.591 347 225.479 347C218.512 347 214.622 343.769 213.809 337.308H217.471C218.285 341.328 220.954 343.338 225.479 343.338C230.15 343.338 232.485 340.49 232.485 334.793C232.485 329.096 230.231 326.248 225.723 326.248C222.435 326.248 220.091 327.29 218.691 329.373H215.151L216.86 310.379H234.438V314.041H220.156L219.253 323.831C220.994 323.001 223.151 322.586 225.723 322.586C232.673 322.586 236.147 326.655 236.147 334.793ZM251.919 314.041C247.28 314.041 244.961 316.076 244.961 320.145C244.961 324.214 247.28 326.248 251.919 326.248C256.558 326.248 258.877 324.214 258.877 320.145C258.877 316.076 256.558 314.041 251.919 314.041ZM251.919 329.91C246.792 329.91 244.229 332.148 244.229 336.624C244.229 341.1 246.792 343.338 251.919 343.338C257.046 343.338 259.609 341.1 259.609 336.624C259.609 332.148 257.046 329.91 251.919 329.91ZM244.546 327.957C242.381 326.362 241.299 323.758 241.299 320.145C241.299 313.634 244.839 310.379 251.919 310.379C258.999 310.379 262.539 313.634 262.539 320.145C262.539 323.758 261.457 326.362 259.292 327.957C261.945 329.633 263.271 332.522 263.271 336.624C263.271 343.541 259.487 347 251.919 347C244.351 347 240.566 343.541 240.566 336.624C240.566 332.522 241.893 329.633 244.546 327.957ZM321.011 331.399V334.988H309.121V331.399H321.011ZM381.825 323.6H375.075V347H370.675V323.6H365.975V321.55L370.675 320.05V318.5C370.675 315.033 371.441 312.55 372.975 311.05C374.508 309.517 376.641 308.75 379.375 308.75C380.441 308.75 381.408 308.85 382.275 309.05C383.175 309.217 383.941 309.417 384.575 309.65L383.425 313.1C382.891 312.933 382.275 312.767 381.575 312.6C380.875 312.433 380.158 312.35 379.425 312.35C377.958 312.35 376.858 312.85 376.125 313.85C375.425 314.817 375.075 316.35 375.075 318.45V320.2H381.825V323.6ZM409.962 333.55C409.962 337.983 408.829 341.417 406.562 343.85C404.329 346.283 401.295 347.5 397.462 347.5C395.095 347.5 392.979 346.967 391.112 345.9C389.279 344.8 387.829 343.217 386.762 341.15C385.695 339.05 385.162 336.517 385.162 333.55C385.162 329.117 386.279 325.7 388.512 323.3C390.745 320.9 393.779 319.7 397.612 319.7C400.045 319.7 402.179 320.25 404.012 321.35C405.879 322.417 407.329 323.983 408.362 326.05C409.429 328.083 409.962 330.583 409.962 333.55ZM389.712 333.55C389.712 336.717 390.329 339.233 391.562 341.1C392.829 342.933 394.829 343.85 397.562 343.85C400.262 343.85 402.245 342.933 403.512 341.1C404.779 339.233 405.412 336.717 405.412 333.55C405.412 330.383 404.779 327.9 403.512 326.1C402.245 324.3 400.245 323.4 397.512 323.4C394.779 323.4 392.795 324.3 391.562 326.1C390.329 327.9 389.712 330.383 389.712 333.55ZM429.436 319.7C429.936 319.7 430.469 319.733 431.036 319.8C431.636 319.833 432.152 319.9 432.586 320L432.036 324.05C431.602 323.95 431.119 323.867 430.586 323.8C430.086 323.733 429.602 323.7 429.136 323.7C427.769 323.7 426.486 324.083 425.286 324.85C424.086 325.583 423.119 326.633 422.386 328C421.686 329.333 421.336 330.9 421.336 332.7V347H416.936V320.2H420.536L421.036 325.1H421.236C422.102 323.633 423.219 322.367 424.586 321.3C425.952 320.233 427.569 319.7 429.436 319.7ZM446.963 319.7C449.263 319.7 451.23 320.2 452.863 321.2C454.53 322.2 455.797 323.617 456.663 325.45C457.563 327.25 458.013 329.367 458.013 331.8V334.45H439.663C439.73 337.483 440.497 339.8 441.963 341.4C443.463 342.967 445.547 343.75 448.213 343.75C449.913 343.75 451.413 343.6 452.713 343.3C454.047 342.967 455.413 342.5 456.813 341.9V345.75C455.447 346.35 454.097 346.783 452.763 347.05C451.43 347.35 449.847 347.5 448.013 347.5C445.48 347.5 443.23 346.983 441.263 345.95C439.33 344.917 437.813 343.383 436.713 341.35C435.647 339.283 435.113 336.767 435.113 333.8C435.113 330.867 435.597 328.35 436.563 326.25C437.563 324.15 438.947 322.533 440.713 321.4C442.513 320.267 444.597 319.7 446.963 319.7ZM446.913 323.3C444.813 323.3 443.147 323.983 441.913 325.35C440.713 326.683 439.997 328.55 439.763 330.95H453.413C453.38 328.683 452.847 326.85 451.813 325.45C450.78 324.017 449.147 323.3 446.913 323.3ZM469.759 347L459.609 320.2H464.309L470.009 336C470.276 336.733 470.559 337.55 470.859 338.45C471.159 339.35 471.426 340.217 471.659 341.05C471.893 341.85 472.059 342.533 472.159 343.1H472.359C472.493 342.533 472.676 341.833 472.909 341C473.176 340.167 473.459 339.3 473.759 338.4C474.093 337.5 474.376 336.7 474.609 336L480.309 320.2H485.009L474.809 347H469.759ZM499.6 319.7C501.9 319.7 503.867 320.2 505.5 321.2C507.167 322.2 508.433 323.617 509.3 325.45C510.2 327.25 510.65 329.367 510.65 331.8V334.45H492.3C492.367 337.483 493.133 339.8 494.6 341.4C496.1 342.967 498.183 343.75 500.85 343.75C502.55 343.75 504.05 343.6 505.35 343.3C506.683 342.967 508.05 342.5 509.45 341.9V345.75C508.083 346.35 506.733 346.783 505.4 347.05C504.067 347.35 502.483 347.5 500.65 347.5C498.117 347.5 495.867 346.983 493.9 345.95C491.967 344.917 490.45 343.383 489.35 341.35C488.283 339.283 487.75 336.767 487.75 333.8C487.75 330.867 488.233 328.35 489.2 326.25C490.2 324.15 491.583 322.533 493.35 321.4C495.15 320.267 497.233 319.7 499.6 319.7ZM499.55 323.3C497.45 323.3 495.783 323.983 494.55 325.35C493.35 326.683 492.633 328.55 492.4 330.95H506.05C506.017 328.683 505.483 326.85 504.45 325.45C503.417 324.017 501.783 323.3 499.55 323.3ZM529.973 319.7C530.473 319.7 531.006 319.733 531.573 319.8C532.173 319.833 532.689 319.9 533.123 320L532.573 324.05C532.139 323.95 531.656 323.867 531.123 323.8C530.623 323.733 530.139 323.7 529.673 323.7C528.306 323.7 527.023 324.083 525.823 324.85C524.623 325.583 523.656 326.633 522.923 328C522.223 329.333 521.873 330.9 521.873 332.7V347H517.473V320.2H521.073L521.573 325.1H521.773C522.639 323.633 523.756 322.367 525.123 321.3C526.489 320.233 528.106 319.7 529.973 319.7Z" fill="white"/>
</svg>
